<svg height="10" viewBox="0 0 14 10" width="14" xmlns="http://www.w3.org/2000/svg"><path d="m18.6407545 11.2769421 4.0777365 4.0115839c.1987602.1955356.292269.4554052.2805264.711474.0117426.2560688-.0817662.5159384-.2805264.711474l-4.0777365 4.0115839c-.3753453.3692561-.9839003.3692561-1.3592455 0-.3753453-.3692561-.3753453-.9679385 0-1.3371946l2.424491-2.3858633h-9.706c-.55228475 0-1-.4477153-1-1s.44771525-1 1-1h9.706l-2.424491-2.3858633c-.3753453-.3692561-.3753453-.9679385 0-1.3371946.3753452-.3692561.9839002-.3692561 1.3592455 0z" fill="#ebf5ff" fill-rule="evenodd" transform="translate(-9 -11)"/></svg>